<svg xmlns="http://www.w3.org/2000/svg" viewBox="0 0 64 64"><defs><style>.cls-1{fill:#006afe;}.cls-2{fill:#fff;}</style></defs><title>powermail_voucher</title><g id="Ebene_1" data-name="Ebene 1"><rect class="cls-1" width="64" height="64"/></g><g id="Ebene_2" data-name="Ebene 2"><path class="cls-2" d="M23.94,46.54H20.79L16,21.81h3l3.81,21.3,9.43-21.3h3Z"/><path class="cls-2" d="M49,40.93c4.22-5,4.59-7.12,4.35-14-.34-9.85-7.57-17.51-19-17.51C21.19,9.42,11,20.31,11,34S19.79,54.8,31.12,54.8c11,0,16.54-3.83,16.54-3.83L49,53.77c-.58.36-6.61,4.41-18.31,4.41C18.62,58.18,7,50.53,7,34.06S19.72,5.82,34.13,5.82c7.65,0,13.82,2.8,17.8,7.21A20.43,20.43,0,0,1,57,26.85c0,6.33-1.28,11.54-5.62,15.91m0,0c-1.94,2.15-6.25,4.17-10.36,4.17-5.41,0-9.35-3.55-9.35-10.52,0-8.52,5.22-15,12.08-15S52,27.07,52,27.07l-2.34,1.17a6,6,0,0,0-6.11-4.33c-5.1,0-8.88,5.65-8.88,12.15,0,5.81,2.92,8.3,6.62,8.3A10.2,10.2,0,0,0,49,40.93"/></g></svg>